<svg width="180" height="40" viewBox="0 0 180 40" fill="none" xmlns="http://www.w3.org/2000/svg">
  <!-- Icon: circle with 4-pointed star cutout -->
  <circle cx="20" cy="20" r="18" fill="#8B2CF6"/>
  <path d="M20 4C20 4 23.5 14 20 20C16.5 14 20 4 20 4Z" fill="white"/>
  <path d="M20 36C20 36 16.5 26 20 20C23.5 26 20 36 20 36Z" fill="white"/>
  <path d="M4 20C4 20 14 16.5 20 20C14 23.5 4 20 4 20Z" fill="white"/>
  <path d="M36 20C36 20 26 23.5 20 20C26 16.5 36 20 36 20Z" fill="white"/>
  <!-- Text: Clinpro -->
  <text x="46" y="27" font-family="system-ui, -apple-system, sans-serif" font-size="22" font-weight="700" fill="#1a1a2e" letter-spacing="-0.5">Clinpro</text>
</svg>
